{"glyphs":{":":{"x_min":0,"x_max":378,"ha":378,"o":"m 188 219 q 236 219 271 184 q 305 149 305 102 q 305 54 271 20 q 237 -13 188 -13 q 138 -13 106 19 q 73 52 73 102 q 73 151 107 185 q 141 219 188 219 z m 188 497 q 236 497 271 462 q 305 428 305 380 q 305 332 271 299 q 237 265 188 265 q 138 265 106 298 q 73 330 73 380 q 73 429 107 463 q 141 497 188 497 z"},"$":{"x_min":0,"x_max":568,"ha":568,"o":"m 200 745 l 385 745 l 385 684 q 430 675 458 658 l 458 484 q 424 502 401 502 q 380 502 366 489 q 352 477 352 457 q 352 435 375 399 q 417 335 431 300 q 445 266 445 226 q 445 142 385 79 l 385 -74 l 200 -74 l 200 2 q 153 9 110 30 l 110 207 q 148 197 162 197 q 188 197 204 212 q 220 227 220 251 q 220 280 192 320 l 172 348 q 130 408 130 471 q 130 568 200 635 z"},"?":{"x_min":0,"x_max":531,"ha":531,"o":"m 352 245 l 171 245 l 171 275 q 171 336 185 365 q 198 395 234 411 l 268 425 q 305 442 305 472 q 305 490 293 502 q 281 514 263 514 q 215 514 215 448 l 47 448 q 47 537 88 593 q 118 634 167 659 q 215 683 267 683 q 358 683 421 622 q 484 562 484 472 q 484 361 394 316 q 365 301 358 291 q 352 280 352 245 z m 265 219 q 312 219 347 184 q 381 149 381 102 q 381 54 347 20 q 313 -13 265 -13 q 214 -13 182 19 q 149 52 149 102 q 149 151 183 185 q 217 219 265 219 z"},"<":{"x_min":0,"x_max":500,"ha":500,"o":"m 466 649 l 466 472 l 222 337 l 466 203 l 466 27 l 33 264 l 33 413 z"},"'":{"x_min":0,"x_max":250,"ha":250,"o":"m 174 399 l 76 399 l 38 667 l 212 667 z"},"=":{"x_min":0,"x_max":749,"ha":749,"o":"m 125 486 l 624 486 l 624 363 l 125 363 z m 125 317 l 624 317 l 624 194 l 125 194 z"},"a":{"x_min":0,"x_max":588,"ha":588,"o":"m 324 183 l 324 -6 q 301 -10 283 -10 q 173 -10 100 62 q 26 134 26 243 q 26 349 100 423 q 174 497 280 497 q 398 497 467 427 q 535 358 535 239 l 535 0 l 352 0 l 352 226 q 352 264 333 287 q 314 310 283 310 q 254 310 233 289 q 212 268 212 239 q 212 209 231 189 q 250 170 279 170 q 303 170 324 183 z"},"L":{"x_min":0,"x_max":335,"ha":335,"o":"m 53 667 l 251 667 l 251 271 q 251 224 266 209 q 281 193 325 193 l 335 193 l 335 0 l 283 0 q 174 0 114 63 q 53 126 53 239 z"},"3":{"x_min":0,"x_max":568,"ha":568,"o":"m 107 667 l 460 667 l 352 410 q 410 371 437 323 q 463 276 463 212 q 463 116 393 50 q 322 -17 218 -17 q 161 -17 105 5 l 105 193 q 147 167 179 167 q 213 167 236 191 q 259 216 259 252 q 259 293 225 318 q 190 343 132 343 l 181 474 l 107 474 z"},";":{"x_min":0,"x_max":378,"ha":378,"o":"m 186 -51 l 186 -15 q 137 -12 106 20 q 76 51 76 98 q 76 147 109 181 q 142 214 190 214 q 238 214 270 181 q 302 147 302 97 q 302 45 271 5 q 239 -35 186 -51 z m 188 497 q 236 497 271 462 q 305 428 305 380 q 305 332 271 299 q 237 265 188 265 q 138 265 106 298 q 73 330 73 380 q 73 429 107 463 q 141 497 188 497 z"},"J":{"x_min":0,"x_max":304,"ha":304,"o":"m 257 667 l 257 217 q 257 116 200 50 q 142 -17 54 -17 q 28 -17 -7 -5 l -7 187 q 8 180 20 180 q 59 180 59 243 l 59 667 z"},"V":{"x_min":0,"x_max":522,"ha":522,"o":"m 546 667 l 255 -38 l -33 667 l 196 667 l 257 458 l 325 667 z"},"\"":{"x_min":0,"x_max":500,"ha":500,"o":"m 195 399 l 103 399 l 66 667 l 233 667 z m 396 399 l 304 399 l 267 667 l 435 667 z"},"7":{"x_min":0,"x_max":568,"ha":568,"o":"m 509 667 l 315 0 l 113 0 l 264 475 l 60 475 l 60 667 z"},"S":{"x_min":0,"x_max":414,"ha":414,"o":"m 380 669 l 380 479 q 358 487 347 487 q 324 487 308 470 q 292 454 292 430 q 292 410 310 379 l 325 353 q 366 282 366 215 q 366 118 297 51 q 228 -17 128 -17 q 80 -17 33 5 l 33 198 q 62 180 83 180 q 109 180 127 195 q 144 210 144 232 q 144 247 116 296 q 72 375 72 453 q 72 547 139 615 q 206 683 299 683 q 340 683 380 669 z"},"}":{"x_min":0,"x_max":367,"ha":367,"o":"m 182 269 q 150 290 138 315 q 126 340 126 386 l 126 487 l 126 498 q 126 532 113 541 q 99 550 48 550 l 34 549 l 34 670 q 50 670 65 671 l 122 674 l 156 672 q 282 672 282 539 l 282 407 q 282 370 293 352 q 305 333 333 328 l 333 200 q 290 191 285 158 l 283 137 q 282 131 282 130 l 282 0 q 282 -76 248 -106 q 215 -135 129 -135 l 102 -135 l 65 -133 l 34 -132 l 34 -9 l 55 -9 q 100 -9 113 0 q 126 10 126 43 l 126 54 l 126 151 q 126 199 137 222 q 148 245 182 269 z"},"Z":{"x_min":0,"x_max":517,"ha":517,"o":"m 517 667 l 310 191 l 515 191 l 515 0 l 12 0 l 218 475 l 0 475 l 0 667 z"},"x":{"x_min":0,"x_max":528,"ha":528,"o":"m 299 487 l 481 487 l 481 380 q 481 334 468 306 q 455 278 422 256 q 455 234 468 207 q 481 180 481 137 l 481 0 l 299 0 l 299 147 q 299 197 264 197 q 229 197 229 154 l 229 0 l 47 0 l 47 130 q 47 175 63 203 q 80 231 120 256 q 80 283 63 312 q 47 341 47 387 l 47 487 l 229 487 l 229 364 q 229 345 239 333 q 249 320 264 320 q 299 320 299 364 z"},")":{"x_min":0,"x_max":367,"ha":367,"o":"m 42 667 l 178 667 q 245 559 271 472 q 297 385 297 270 q 297 157 271 68 q 244 -21 178 -126 l 42 -126 q 140 79 140 268 q 140 461 42 667 z"},"&":{"x_min":0,"x_max":762,"ha":762,"o":"m 455 286 l 579 286 q 581 263 581 254 q 581 195 552 143 l 646 0 l 472 0 l 452 23 q 395 -17 333 -17 q 243 -17 180 46 q 117 108 117 196 q 117 296 204 368 q 157 427 157 490 q 157 570 213 626 q 269 683 347 683 q 425 683 481 628 q 537 574 537 499 q 537 488 536 473 l 385 473 q 381 523 351 523 q 322 523 322 495 q 322 485 330 473 z m 296 241 q 272 224 272 200 q 272 178 287 162 q 301 146 322 146 q 338 146 356 160 z"},"_":{"x_min":0,"x_max":500,"ha":500,"o":"m 0 -51 l 500 -51 l 500 -155 l 0 -155 z"},"v":{"x_min":0,"x_max":385,"ha":385,"o":"m 419 487 l 191 -19 l -33 487 l 141 487 l 193 355 l 250 487 z"},"O":{"x_min":0,"x_max":753,"ha":753,"o":"m 383 683 q 524 683 626 580 q 727 477 727 333 q 727 188 625 85 q 523 -17 377 -17 q 232 -17 129 86 q 27 188 27 333 q 27 480 130 582 q 233 683 383 683 z m 377 487 q 316 487 273 442 q 230 397 230 333 q 230 270 273 225 q 316 180 377 180 q 438 180 481 225 q 524 270 524 333 q 524 397 481 442 q 438 487 377 487 z"},"(":{"x_min":0,"x_max":367,"ha":367,"o":"m 325 -126 l 188 -126 q 122 -19 95 68 q 69 155 69 270 q 69 383 96 472 q 123 561 188 667 l 324 667 q 227 461 227 272 q 227 80 325 -126 z"},"C":{"x_min":0,"x_max":752,"ha":752,"o":"m 518 326 l 725 320 q 705 159 614 71 q 522 -17 376 -17 q 227 -17 127 83 q 26 183 26 331 q 26 480 129 582 q 231 683 381 683 q 528 683 627 583 q 695 515 724 392 l 511 377 q 476 487 376 487 q 312 487 271 443 q 230 399 230 331 q 230 266 271 223 q 311 180 373 180 q 436 180 473 218 q 511 255 518 326 z"},"W":{"x_min":0,"x_max":812,"ha":812,"o":"m 759 667 l 759 187 q 759 97 705 40 q 650 -17 564 -17 q 461 -17 406 78 q 373 27 334 5 q 295 -17 239 -17 q 149 -17 101 40 q 53 97 53 203 l 53 667 l 251 667 l 251 233 q 251 201 257 190 q 262 180 277 180 q 307 180 307 229 l 307 667 l 505 667 l 505 233 q 505 202 510 191 q 516 180 531 180 q 561 180 561 233 l 561 667 z"},"A":{"x_min":0,"x_max":592,"ha":592,"o":"m 309 334 l 309 159 l 251 159 l 251 0 l 53 0 l 53 424 q 53 547 120 615 q 188 683 309 683 q 426 683 482 621 q 539 560 539 431 l 539 0 l 340 0 l 340 417 q 340 457 331 472 q 322 487 298 487 q 251 487 251 417 l 251 334 z"},"f":{"x_min":0,"x_max":344,"ha":344,"o":"m 317 379 l 317 188 l 236 188 l 236 0 l 53 0 l 53 414 q 53 483 77 533 q 107 596 169 635 q 231 675 298 675 l 317 675 l 317 483 q 311 484 308 484 q 273 484 255 461 q 236 438 236 396 l 236 379 z"},"Q":{"x_min":0,"x_max":752,"ha":752,"o":"m 282 -62 l 282 -3 q 166 29 96 121 q 26 213 26 335 q 26 496 147 598 q 248 683 376 683 q 542 683 644 563 q 726 467 726 340 q 726 216 653 118 q 587 29 470 -3 l 470 -62 z m 289 281 l 464 281 l 464 207 q 522 257 522 334 q 522 396 479 441 q 436 487 376 487 q 317 487 273 441 q 230 396 230 334 q 230 255 289 207 z"},"w":{"x_min":0,"x_max":775,"ha":775,"o":"m 53 480 l 236 480 l 236 218 q 236 187 242 175 q 249 163 265 163 q 296 163 296 218 l 296 480 l 479 480 l 479 218 q 479 187 485 175 q 492 163 508 163 q 539 163 539 218 l 539 480 l 721 480 l 721 180 q 721 98 666 41 q 611 -17 532 -17 q 451 -17 387 52 q 315 -17 243 -17 q 152 -17 97 50 q 53 102 53 201 z"},"-":{"x_min":0,"x_max":223,"ha":223,"o":"m 223 360 l 223 231 l 0 231 l 0 360 z"},"E":{"x_min":0,"x_max":482,"ha":482,"o":"m 422 407 l 422 259 l 293 259 q 267 259 256 251 q 245 243 245 225 q 245 204 256 197 q 267 190 302 190 l 435 190 l 435 0 l 279 0 q 169 0 111 52 q 53 105 53 204 l 53 465 q 53 561 108 614 q 163 667 263 667 l 435 667 l 435 475 l 309 475 q 257 475 257 442 q 257 422 270 415 q 282 407 313 407 z"},"s":{"x_min":0,"x_max":365,"ha":365,"o":"m 358 480 l 358 288 q 320 288 305 273 q 291 259 287 216 q 274 75 178 17 q 126 -13 32 -13 l 7 -13 l 7 180 l 15 180 q 59 180 78 198 q 97 217 100 263 q 104 337 114 368 q 124 398 154 428 q 208 480 303 480 z"},">":{"x_min":0,"x_max":500,"ha":500,"o":"m 33 27 l 33 204 l 278 338 l 34 473 l 34 649 l 466 412 l 466 263 z"},"l":{"x_min":0,"x_max":290,"ha":290,"o":"m 236 667 l 236 0 l 53 0 l 53 667 z"},"8":{"x_min":0,"x_max":568,"ha":568,"o":"m 448 382 q 489 339 505 303 q 521 267 521 215 q 521 116 453 50 q 385 -17 284 -17 q 183 -17 115 50 q 47 116 47 215 q 47 266 64 303 q 80 341 120 382 q 84 430 84 489 q 84 573 140 628 q 196 683 283 683 q 371 683 427 628 q 484 574 484 488 q 484 431 448 382 z m 282 540 q 260 540 244 524 q 228 508 228 486 q 228 461 244 445 q 259 429 284 429 q 306 429 322 446 q 337 462 337 485 q 337 508 321 524 q 305 540 282 540 z m 283 292 q 250 292 226 268 q 203 245 203 212 q 203 177 226 153 q 249 129 283 129 q 318 129 341 153 q 364 177 364 212 q 364 245 340 268 q 316 292 283 292 z"},"\\":{"x_min":0,"x_max":347,"ha":347,"o":"m 47 667 l 136 667 l 318 -126 l 229 -126 z"},"e":{"x_min":0,"x_max":554,"ha":554,"o":"m 532 214 l 255 214 q 249 235 249 252 q 249 277 257 300 l 350 300 q 340 354 289 354 q 255 354 233 325 q 212 296 212 251 q 212 204 233 174 q 253 145 287 145 q 314 145 340 172 l 444 47 q 371 -10 282 -10 q 174 -10 100 63 q 26 136 26 243 q 26 350 101 424 q 175 498 284 498 q 390 498 462 426 q 534 354 534 248 q 534 237 532 214 z"},"b":{"x_min":0,"x_max":579,"ha":579,"o":"m 225 667 l 225 268 q 225 170 295 170 q 325 170 345 191 q 366 211 366 240 q 366 270 347 290 q 327 310 299 310 q 279 310 253 292 l 253 494 q 285 497 302 497 q 405 497 478 422 q 552 348 552 244 q 552 137 477 63 q 402 -10 293 -10 q 239 -10 187 14 q 135 38 101 79 q 42 149 42 261 l 42 667 z"},"%":{"x_min":0,"x_max":926,"ha":926,"o":"m 238 676 q 310 676 361 625 q 413 574 413 501 q 413 429 362 378 q 311 327 238 327 q 166 327 115 378 q 63 429 63 501 q 63 573 115 625 q 166 676 238 676 z m 238 578 q 207 578 184 556 q 162 533 162 501 q 162 470 184 447 q 207 425 238 425 q 270 425 292 447 q 315 470 315 501 q 315 533 292 556 q 270 578 238 578 z m 624 667 l 355 0 l 295 0 l 566 667 z m 689 343 q 761 343 812 292 q 863 240 863 168 q 863 96 812 44 q 761 -7 689 -7 q 617 -7 565 44 q 514 96 514 168 q 514 240 565 292 q 617 343 689 343 z m 689 245 q 657 245 635 223 q 612 200 612 168 q 612 136 635 114 q 657 91 689 91 q 721 91 743 114 q 766 136 766 168 q 766 200 743 223 q 721 245 689 245 z"},"m":{"x_min":0,"x_max":775,"ha":775,"o":"m 721 0 l 539 0 l 539 263 q 539 293 532 305 q 526 316 509 316 q 479 316 479 262 l 479 0 l 296 0 l 296 263 q 296 293 289 305 q 283 316 266 316 q 236 316 236 262 l 236 0 l 53 0 l 53 300 q 53 382 108 439 q 164 497 242 497 q 323 497 388 428 q 459 497 531 497 q 623 497 678 430 q 721 378 721 279 z"},"#":{"x_min":0,"x_max":675,"ha":675,"o":"m 470 178 l 445 0 l 335 0 l 360 178 l 261 178 l 236 0 l 126 0 l 151 178 l 59 178 l 74 285 l 167 285 l 180 384 l 88 384 l 103 492 l 195 492 l 220 667 l 336 667 l 312 492 l 397 492 l 422 667 l 539 667 l 514 492 l 617 492 l 602 384 l 499 384 l 485 285 l 588 285 l 573 178 z m 389 384 l 290 384 l 276 285 l 375 285 z"},",":{"x_min":0,"x_max":373,"ha":373,"o":"m 184 -51 l 184 -15 q 135 -12 104 20 q 73 51 73 98 q 73 147 106 181 q 139 214 188 214 q 235 214 268 181 q 300 147 300 97 q 300 45 268 5 q 237 -35 184 -51 z"},"n":{"x_min":0,"x_max":541,"ha":541,"o":"m 487 0 l 305 0 l 305 275 q 305 317 270 317 q 236 317 236 275 l 236 0 l 53 0 l 53 271 q 53 367 116 432 q 179 497 271 497 q 375 497 438 421 q 487 362 487 257 z"},"h":{"x_min":0,"x_max":535,"ha":535,"o":"m 236 667 l 236 463 q 282 497 329 497 q 399 497 440 446 q 481 395 481 309 l 481 0 l 299 0 l 299 257 q 299 289 292 299 q 286 310 267 310 q 236 310 236 265 l 236 0 l 53 0 l 53 667 z"},"z":{"x_min":0,"x_max":495,"ha":495,"o":"m 459 487 l 310 191 l 482 191 l 482 0 l 13 0 l 161 296 l 7 296 l 7 487 z"},"B":{"x_min":0,"x_max":571,"ha":571,"o":"m 67 667 l 309 667 q 524 667 524 497 q 524 413 451 357 q 558 311 558 192 q 558 101 495 46 q 464 21 429 10 q 394 0 334 0 l 296 0 l 296 171 l 330 171 q 360 171 372 179 q 384 187 384 206 q 384 238 334 238 l 296 238 l 296 416 q 351 416 351 453 q 351 488 302 488 l 265 488 l 265 0 l 67 0 z"},"K":{"x_min":0,"x_max":645,"ha":645,"o":"m 646 667 l 470 364 l 645 0 l 422 0 l 271 368 l 442 667 z m 265 667 l 265 0 l 67 0 l 67 667 z"},"R":{"x_min":0,"x_max":598,"ha":598,"o":"m 265 487 l 265 0 l 67 0 l 67 667 l 321 667 q 438 667 501 609 q 573 544 573 445 q 573 344 484 275 l 599 0 l 391 0 l 294 215 l 294 386 l 310 386 q 373 386 373 440 q 373 487 300 487 z"},"T":{"x_min":0,"x_max":515,"ha":515,"o":"m 357 475 l 357 0 l 159 0 l 159 475 l 7 475 l 7 667 l 508 667 l 508 475 z"},"P":{"x_min":0,"x_max":562,"ha":562,"o":"m 284 230 l 284 405 q 344 405 344 451 q 344 493 298 493 q 251 493 251 436 l 251 0 l 53 0 l 53 415 q 53 479 66 521 q 79 562 110 598 q 146 637 198 660 q 251 683 307 683 q 409 683 478 615 q 547 546 547 445 q 547 347 485 286 q 428 230 314 230 z"},"|":{"x_min":0,"x_max":500,"ha":500,"o":"m 160 667 l 340 667 l 340 -167 l 160 -167 z"},"t":{"x_min":0,"x_max":334,"ha":334,"o":"m 216 667 l 216 480 l 298 480 l 298 287 l 216 287 q 216 229 234 207 q 252 185 301 185 l 301 -7 q 287 -7 280 -7 q 218 -7 163 21 q 108 50 75 100 q 33 163 33 267 l 33 667 z"},"M":{"x_min":0,"x_max":812,"ha":812,"o":"m 53 0 l 53 480 q 53 570 107 626 q 162 683 248 683 q 351 683 406 589 q 439 640 478 661 q 517 683 573 683 q 663 683 711 626 q 759 570 759 463 l 759 0 l 561 0 l 561 434 q 561 466 555 476 q 550 487 535 487 q 505 487 505 437 l 505 0 l 307 0 l 307 434 q 307 465 302 476 q 296 487 281 487 q 251 487 251 434 l 251 0 z"},"g":{"x_min":0,"x_max":577,"ha":577,"o":"m 313 201 l 313 33 q 273 19 237 19 q 149 19 88 85 q 26 152 26 249 q 26 354 100 425 q 174 497 281 497 q 338 497 391 474 q 443 451 473 413 q 522 349 522 227 l 522 67 q 522 -63 448 -145 q 375 -226 256 -226 q 220 -226 165 -208 l 165 -42 q 200 -62 237 -62 q 286 -62 313 -29 q 340 3 340 64 l 340 247 q 340 324 278 324 q 251 324 232 303 q 212 283 212 257 q 212 229 231 210 q 250 192 277 192 q 296 192 313 201 z"},"j":{"x_min":0,"x_max":355,"ha":355,"o":"m 119 487 l 302 487 l 302 76 q 302 -53 241 -129 q 163 -226 27 -226 q -15 -226 -67 -208 l -67 -36 q -21 -58 11 -58 q 119 -58 119 102 z m 205 704 q 242 704 269 678 q 296 652 296 616 q 296 578 271 554 q 245 529 205 529 q 165 529 139 554 q 114 578 114 616 q 114 652 141 678 q 168 704 205 704 z"},"i":{"x_min":0,"x_max":290,"ha":290,"o":"m 236 487 l 236 0 l 53 0 l 53 487 z m 145 704 q 182 704 209 678 q 236 652 236 616 q 236 578 211 554 q 185 529 145 529 q 105 529 79 554 q 54 578 54 616 q 54 652 81 678 q 108 704 145 704 z"},"y":{"x_min":0,"x_max":536,"ha":536,"o":"m 116 -213 l 116 -55 q 153 -70 181 -70 q 270 -70 296 30 q 249 1 203 1 q 135 1 91 52 q 47 103 47 181 l 47 487 l 229 487 l 229 225 q 229 182 266 182 q 300 182 300 229 l 300 487 l 483 487 l 483 52 q 483 -69 415 -144 q 333 -233 217 -233 q 167 -233 116 -213 z"},"@":{"x_min":0,"x_max":749,"ha":749,"o":"m 583 94 l 602 18 q 510 -13 404 -13 q 221 -13 123 96 q 38 191 38 327 q 38 477 139 578 q 239 679 388 679 q 528 679 619 596 q 710 513 710 386 q 710 290 652 226 q 594 162 506 162 q 459 162 431 179 q 403 197 403 226 q 403 240 409 261 l 427 332 q 429 340 429 351 q 429 391 391 391 q 367 391 349 372 q 331 354 331 330 q 331 299 361 299 q 375 299 388 304 l 344 183 q 329 180 318 180 q 265 180 234 212 q 202 243 202 297 q 202 384 266 449 q 330 514 416 514 q 478 514 516 482 q 554 450 554 398 q 554 376 547 351 l 533 292 l 530 281 q 526 267 526 257 q 526 233 547 233 q 581 233 608 281 q 635 328 635 386 q 635 483 568 543 q 500 604 391 604 q 274 604 198 525 q 121 446 121 326 q 121 222 181 150 q 253 62 405 62 q 492 62 583 94 z"},".":{"x_min":0,"x_max":378,"ha":378,"o":"m 188 219 q 236 219 271 184 q 305 149 305 102 q 305 54 271 20 q 237 -13 188 -13 q 138 -13 106 19 q 73 52 73 102 q 73 151 107 185 q 141 219 188 219 z"},"p":{"x_min":0,"x_max":579,"ha":579,"o":"m 225 -180 l 42 -180 l 42 226 q 42 338 101 408 q 135 449 187 473 q 239 497 293 497 q 402 497 477 423 q 552 350 552 244 q 552 140 478 65 q 403 -10 302 -10 q 285 -10 253 -7 l 253 194 q 275 176 298 176 q 326 176 346 197 q 367 218 367 247 q 367 276 346 296 q 325 316 295 316 q 225 316 225 219 z"},"X":{"x_min":0,"x_max":498,"ha":498,"o":"m 526 667 l 353 342 l 532 0 l 323 0 l 241 162 l 172 0 l -33 0 l 150 337 l -23 667 l 183 667 l 261 515 l 323 667 z"},"*":{"x_min":0,"x_max":500,"ha":500,"o":"m 292 581 q 311 584 321 584 q 366 584 408 541 l 320 489 q 341 458 341 424 q 341 396 323 360 l 247 427 q 213 388 164 388 q 152 388 130 392 l 172 488 q 104 510 92 591 l 195 582 q 199 649 269 683 z"},"Y":{"x_min":0,"x_max":503,"ha":503,"o":"m 537 667 l 348 370 l 348 0 l 150 0 l 150 370 l -40 667 l 161 667 l 247 529 l 339 667 z"},"c":{"x_min":0,"x_max":560,"ha":560,"o":"m 352 224 l 533 231 q 525 125 455 58 q 384 -10 282 -10 q 175 -10 101 64 q 27 139 27 248 q 27 351 102 424 q 176 497 281 497 q 372 497 442 439 q 512 382 529 292 l 344 286 q 320 317 283 317 q 252 317 232 296 q 212 276 212 245 q 212 213 233 191 q 254 170 286 170 q 333 170 352 224 z"},"!":{"x_min":0,"x_max":432,"ha":432,"o":"m 310 667 l 306 253 l 133 253 l 123 667 z m 215 219 q 263 219 298 184 q 332 149 332 102 q 332 54 298 20 q 264 -13 215 -13 q 165 -13 133 19 q 100 52 100 102 q 100 151 134 185 q 167 219 215 219 z"},"/":{"x_min":0,"x_max":347,"ha":347,"o":"m 300 667 l 118 -126 l 29 -126 l 211 667 z"},"[":{"x_min":0,"x_max":367,"ha":367,"o":"m 200 546 l 200 -6 l 322 -6 l 322 -126 l 44 -126 l 44 667 l 322 667 l 322 546 z"},"6":{"x_min":0,"x_max":568,"ha":568,"o":"m 178 686 l 353 624 l 223 260 q 217 244 217 232 q 217 206 237 187 q 256 167 283 167 q 310 167 329 187 q 348 206 348 233 q 348 261 329 280 q 310 299 283 299 q 277 299 264 297 l 344 488 q 447 443 493 385 q 539 327 539 240 q 539 132 465 58 q 391 -17 283 -17 q 182 -17 106 58 q 30 132 30 232 q 30 278 65 376 z"},"r":{"x_min":0,"x_max":321,"ha":321,"o":"m 320 492 l 320 296 q 301 307 286 307 q 236 307 236 231 l 236 0 l 53 0 l 53 266 q 53 372 111 434 q 168 497 265 497 q 286 497 320 492 z"},"2":{"x_min":0,"x_max":568,"ha":568,"o":"m 520 193 l 520 0 l 89 0 l 303 401 l 311 415 q 319 431 319 447 q 319 486 273 486 q 255 486 241 473 q 228 459 228 441 q 228 421 246 404 l 160 252 q 106 285 78 336 q 49 388 49 450 q 49 546 117 615 q 185 683 281 683 q 377 683 445 615 q 513 547 513 450 q 513 395 488 347 l 409 193 z"},"{":{"x_min":0,"x_max":367,"ha":367,"o":"m 185 270 q 216 249 228 224 q 240 199 240 152 l 240 52 l 240 42 q 240 7 254 -2 q 267 -11 318 -11 l 333 -11 l 333 -131 q 316 -131 301 -132 l 245 -135 l 210 -133 q 141 -129 113 -99 q 84 -69 84 0 l 84 131 q 84 169 73 188 q 62 206 34 211 l 34 339 q 77 347 81 380 l 84 402 q 84 408 84 409 l 84 539 q 84 615 118 644 q 151 674 237 674 l 265 673 l 301 672 l 333 671 l 333 547 l 311 548 q 266 548 253 538 q 240 529 240 496 l 240 484 l 240 388 q 240 340 229 317 q 218 294 185 270 z"},"9":{"x_min":0,"x_max":568,"ha":568,"o":"m 391 -20 l 216 42 l 346 407 q 351 422 351 435 q 351 461 332 480 q 312 500 285 500 q 258 500 240 480 q 221 461 221 434 q 221 406 240 387 q 258 368 286 368 q 292 368 304 370 l 225 178 q 121 224 75 282 q 30 340 30 427 q 30 535 104 609 q 178 683 285 683 q 387 683 463 609 q 539 534 539 435 q 539 388 503 290 z"}," ":{"x_min":0,"x_max":250,"ha":250,"o":""},"I":{"x_min":0,"x_max":332,"ha":332,"o":"m 265 667 l 265 0 l 67 0 l 67 667 z"},"H":{"x_min":0,"x_max":619,"ha":619,"o":"m 320 428 l 320 252 l 265 252 l 265 0 l 67 0 l 67 667 l 265 667 l 265 428 z m 552 667 l 552 0 l 354 0 l 354 667 z"},"4":{"x_min":0,"x_max":568,"ha":568,"o":"m 529 667 l 529 0 l 342 0 l 342 509 l 259 344 l 300 344 l 300 199 l 40 199 l 237 667 z"},"~":{"x_min":0,"x_max":667,"ha":667,"o":"m 178 541 l 92 613 q 149 759 248 759 q 277 759 358 727 q 413 705 428 705 q 462 705 492 761 l 578 689 q 545 611 510 578 q 474 545 420 545 q 388 545 309 578 q 259 598 241 598 q 208 598 178 541 z"},"D":{"x_min":0,"x_max":732,"ha":732,"o":"m 265 475 l 265 0 l 67 0 l 67 667 l 325 667 q 495 667 591 589 q 706 497 706 339 q 706 188 608 92 q 510 -4 356 -4 q 338 -4 297 -2 l 297 194 l 329 194 q 502 194 502 339 q 502 475 332 475 z"},"^":{"x_min":0,"x_max":500,"ha":500,"o":"m 165 341 l 9 341 l 151 671 l 349 671 l 492 341 l 335 341 l 250 551 z"},"0":{"x_min":0,"x_max":568,"ha":568,"o":"m 46 260 l 46 407 q 46 535 110 609 q 174 683 284 683 q 394 683 458 609 q 521 535 521 407 l 521 260 q 521 132 458 58 q 394 -17 284 -17 q 174 -17 110 58 q 46 132 46 260 z m 236 446 l 236 221 q 236 160 284 160 q 332 160 332 221 l 332 446 q 332 507 284 507 q 236 507 236 446 z"},"F":{"x_min":0,"x_max":481,"ha":481,"o":"m 317 353 l 317 174 l 251 174 l 251 0 l 53 0 l 53 414 q 53 530 125 607 q 197 683 307 683 q 427 683 508 579 l 346 460 q 332 499 297 499 q 251 499 251 435 l 251 353 z"},"`":{"x_min":0,"x_max":500,"ha":500,"o":"m 223 649 l 326 536 l 223 536 l 107 649 z"},"k":{"x_min":0,"x_max":539,"ha":539,"o":"m 236 667 l 236 0 l 53 0 l 53 667 z m 516 487 l 426 310 l 559 0 l 357 0 l 243 318 l 326 487 z"},"u":{"x_min":0,"x_max":541,"ha":541,"o":"m 53 480 l 236 480 l 236 205 q 236 164 271 164 q 305 164 305 205 l 305 480 l 487 480 l 487 208 q 487 114 424 49 q 361 -17 270 -17 q 166 -17 103 59 q 53 118 53 223 z"},"]":{"x_min":0,"x_max":367,"ha":367,"o":"m 166 -6 l 166 546 l 44 546 l 44 667 l 322 667 l 322 -126 l 44 -126 l 44 -6 z"},"U":{"x_min":0,"x_max":589,"ha":589,"o":"m 535 667 l 535 234 q 535 120 467 52 q 399 -17 286 -17 q 173 -17 113 50 q 53 116 53 241 l 53 667 l 251 667 l 251 241 q 251 180 295 180 q 337 180 337 241 l 337 667 z"},"o":{"x_min":0,"x_max":559,"ha":559,"o":"m 284 497 q 388 497 462 423 q 536 348 536 244 q 536 139 461 64 q 386 -10 280 -10 q 174 -10 99 65 q 23 139 23 244 q 23 351 99 424 q 174 497 284 497 z m 279 317 q 250 317 229 296 q 209 274 209 244 q 209 213 230 192 q 250 170 279 170 q 309 170 329 192 q 350 213 350 244 q 350 274 330 296 q 309 317 279 317 z"},"N":{"x_min":0,"x_max":589,"ha":589,"o":"m 53 0 l 53 433 q 53 546 121 615 q 189 683 303 683 q 416 683 475 617 q 535 550 535 426 l 535 0 l 337 0 l 337 426 q 337 487 293 487 q 251 487 251 426 l 251 0 z"},"+":{"x_min":0,"x_max":749,"ha":749,"o":"m 303 271 l 125 271 l 125 409 l 303 409 l 303 596 l 445 596 l 445 409 l 624 409 l 624 271 l 445 271 l 445 84 l 303 84 z"},"G":{"x_min":0,"x_max":613,"ha":613,"o":"m 349 374 l 538 374 q 599 298 599 214 q 599 116 528 50 q 456 -17 352 -17 q 216 -17 121 86 q 26 189 26 337 q 26 486 123 584 q 219 683 364 683 q 413 683 473 663 l 473 465 q 426 487 388 487 q 318 487 274 443 q 229 400 229 331 q 229 260 271 218 q 312 177 381 177 q 426 177 426 203 q 426 222 396 222 l 349 222 z"},"q":{"x_min":0,"x_max":579,"ha":579,"o":"m 353 -180 l 353 219 q 353 316 282 316 q 253 316 232 296 q 211 276 211 247 q 211 218 232 197 q 252 176 280 176 q 302 176 325 194 l 325 -7 q 293 -10 276 -10 q 175 -10 101 65 q 26 140 26 244 q 26 350 101 423 q 176 497 285 497 q 339 497 391 473 q 443 449 477 408 q 536 338 536 226 l 536 -180 z"},"d":{"x_min":0,"x_max":579,"ha":579,"o":"m 353 667 l 536 667 l 536 261 q 536 149 477 79 q 443 38 391 14 q 339 -10 285 -10 q 176 -10 101 63 q 26 137 26 243 q 26 346 101 421 q 175 497 276 497 q 292 497 325 494 l 325 292 q 303 310 280 310 q 252 310 232 289 q 211 269 211 239 q 211 211 232 191 q 253 170 283 170 q 353 170 353 268 z"},"1":{"x_min":0,"x_max":568,"ha":568,"o":"m 379 667 l 379 0 l 190 0 l 190 667 z"},"5":{"x_min":0,"x_max":568,"ha":568,"o":"m 465 667 l 465 475 l 301 475 l 292 445 q 382 419 425 370 q 484 304 484 211 q 484 113 412 48 q 340 -17 231 -17 q 157 -17 85 22 l 85 186 q 143 158 186 158 q 231 158 257 179 q 283 199 283 234 q 283 274 243 301 q 203 329 144 329 q 121 329 84 320 l 156 667 z"}}}
